<svg xmlns="http://www.w3.org/2000/svg" viewBox="0 0 1280 640" width="1280" height="640">
  <defs>
    <linearGradient id="bg" x1="0%" y1="0%" x2="100%" y2="100%">
      <stop offset="0%" style="stop-color:#6366f1"/>
      <stop offset="100%" style="stop-color:#8b5cf6"/>
    </linearGradient>
    <linearGradient id="bgPage" x1="0%" y1="0%" x2="100%" y2="100%">
      <stop offset="0%" style="stop-color:#fafafa"/>
      <stop offset="100%" style="stop-color:#f0f0ff"/>
    </linearGradient>
  </defs>

  <!-- Background -->
  <rect width="1280" height="640" fill="url(#bgPage)"/>

  <!-- Decorative blobs -->
  <circle cx="1150" cy="80"  r="220" fill="#6366f1" opacity="0.06"/>
  <circle cx="100"  cy="580" r="180" fill="#8b5cf6" opacity="0.06"/>
  <circle cx="1220" cy="600" r="140" fill="#6366f1" opacity="0.05"/>

  <!-- Logo icon — left side, vertically centered -->
  <g transform="translate(80, 220) scale(2.5)">
    <rect width="120" height="120" rx="24" fill="url(#bg)"/>
    <path d="M28 42 L28 82 C28 85.3 30.7 88 34 88 L86 88 C89.3 88 92 85.3 92 82 L92 50 C92 46.7 89.3 44 86 44 L58 44 L52 36 C51.2 34.8 49.8 34 48.3 34 L34 34 C30.7 34 28 36.7 28 40 Z" fill="white" opacity="0.95"/>
    <rect x="40" y="56" width="12" height="3" rx="1.5" fill="#6366f1"/>
    <rect x="40" y="64" width="28" height="3" rx="1.5" fill="#6366f1" opacity="0.5"/>
    <rect x="40" y="72" width="20" height="3" rx="1.5" fill="#6366f1" opacity="0.3"/>
    <path d="M34 57.5 L38 60 L34 62.5" stroke="#6366f1" stroke-width="2.5" stroke-linecap="round" stroke-linejoin="round" fill="none"/>
  </g>

  <!-- Title — starts at x=480, left-aligned -->
  <text x="480" y="310" font-family="system-ui, -apple-system, 'Segoe UI', Helvetica, Arial, sans-serif" font-size="96" font-weight="700" fill="#1e1b4b">Filesystem</text>
  <text x="480" y="410" font-family="system-ui, -apple-system, 'Segoe UI', Helvetica, Arial, sans-serif" font-size="96" font-weight="700" fill="#6366f1">MCP</text>

  <!-- Subtitle -->
  <text x="480" y="460" font-family="system-ui, -apple-system, 'Segoe UI', Helvetica, Arial, sans-serif" font-size="28" fill="#71717a" font-weight="400">AI agent filesystem control over MCP</text>

  <!-- Chips — most relevant capabilities, left-aligned from x=480 -->
  <!-- chip 1: 12 tools -->
  <rect x="480" y="500" width="150" height="38" rx="19" fill="#6366f1" opacity="0.12"/>
  <text x="555" y="524" text-anchor="middle" font-family="system-ui, -apple-system, 'Segoe UI', Helvetica, Arial, sans-serif" font-size="15" fill="#6366f1" font-weight="600">12 tools</text>

  <!-- chip 2: RBAC + JWT -->
  <rect x="644" y="500" width="155" height="38" rx="19" fill="#6366f1" opacity="0.12"/>
  <text x="721" y="524" text-anchor="middle" font-family="system-ui, -apple-system, 'Segoe UI', Helvetica, Arial, sans-serif" font-size="15" fill="#6366f1" font-weight="600">RBAC + JWT</text>

  <!-- chip 3: stdio + http -->
  <rect x="813" y="500" width="155" height="38" rx="19" fill="#6366f1" opacity="0.12"/>
  <text x="890" y="524" text-anchor="middle" font-family="system-ui, -apple-system, 'Segoe UI', Helvetica, Arial, sans-serif" font-size="15" fill="#6366f1" font-weight="600">stdio + http</text>

  <!-- chip 4: OAuth RFC 8414 -->
  <rect x="982" y="500" width="190" height="38" rx="19" fill="#6366f1" opacity="0.12"/>
  <text x="1077" y="524" text-anchor="middle" font-family="system-ui, -apple-system, 'Segoe UI', Helvetica, Arial, sans-serif" font-size="15" fill="#6366f1" font-weight="600">OAuth RFC 8414</text>

</svg>
